<?xml version="1.0" standalone="no"?>
<!DOCTYPE svg PUBLIC "-//W3C//DTD SVG 20010904//EN"
 "http://www.w3.org/TR/2001/REC-SVG-20010904/DTD/svg10.dtd">
<svg version="1.0" xmlns="http://www.w3.org/2000/svg"
 width="32.000000pt" height="32.000000pt" viewBox="0 0 32.000000 32.000000"
 preserveAspectRatio="xMidYMid meet">

<g transform="translate(0.000000,32.000000) scale(0.100000,-0.100000)"
fill="#000000" stroke="none">
<path d="M123 212 c-6 -4 -15 -20 -18 -35 -6 -23 -4 -27 13 -27 26 0 52 26 52
51 0 19 -24 25 -47 11z"/>
<path d="M166 154 c-9 -8 -16 -24 -16 -35 0 -15 7 -19 30 -19 24 0 33 6 40 26
6 14 8 30 4 35 -8 14 -41 11 -58 -7z"/>
</g>
</svg>
